<svg width="960" height="800" viewBox="0 0 960 800" fill="none" xmlns="http://www.w3.org/2000/svg">
<g clip-path="url(#clip0_56_5878)">
<path d="M123.462 150.025C135.784 133.158 241.275 -6.31944 412.271 0.474529C420.815 0.81417 587.582 9.62111 649.093 118.955C694.595 199.832 646.422 271.59 701.93 326.694C750.297 374.707 809.738 342.927 839.46 381.753C884.735 440.896 812.634 600.627 701.854 689.708C587.466 781.689 368.63 849.171 198.542 726.45C7.58091 588.669 9.51869 305.985 123.462 150.025Z" fill="#F4F7FA"/>
<path d="M446.245 537.462L428.647 537.492C427.435 525.868 424.64 514.709 420.482 504.226L435.361 495.597C439.427 493.239 440.817 487.92 438.473 483.705L432.221 472.461C429.863 468.22 424.626 466.663 420.516 468.995L405.822 477.334C398.983 467.751 390.822 459.11 381.577 451.678L390.028 437.16C392.453 432.994 391.014 427.512 386.808 424.902L375.559 417.923C371.307 415.285 365.851 416.532 363.381 420.722L354.91 435.092C344.026 430.022 332.265 426.365 319.859 424.403V407.362C319.859 402.335 315.724 398.072 310.607 397.838L296.911 397.213C291.729 396.977 287.514 400.904 287.514 405.987V423.214C274.726 424.28 262.399 427.154 250.81 431.602L241.668 416.028C238.981 411.451 233.015 409.676 228.332 412.078L215.808 418.501C211.072 420.93 209.446 426.647 212.185 431.254L221.657 447.188C211.29 454.518 202.021 463.292 194.171 473.241L177.038 463.548C172.18 460.799 165.947 462.224 163.124 466.745L155.592 478.809C152.75 483.36 154.437 489.267 159.351 491.986L177.079 501.797C172.164 513.118 168.843 525.253 167.398 537.942L146.132 537.978C140.409 537.988 135.754 542.326 135.754 547.668V561.872C135.754 567.214 140.409 571.485 146.132 571.414L167.963 571.143C169.806 583.534 173.446 595.331 178.619 606.284L159.351 617.22C154.437 620.008 152.75 625.938 155.592 630.45L163.124 642.406C165.947 646.888 172.18 648.224 177.038 645.407L196.527 634.105C204.314 643.315 213.371 651.407 223.421 658.143L212.185 677.203C209.446 681.849 211.071 687.542 215.808 689.904L228.332 696.15C233.015 698.486 238.981 696.626 241.668 692.012L252.812 672.87C263.815 676.751 275.46 679.214 287.514 680.064V701.403C287.514 706.485 291.729 710.354 296.911 710.044L310.607 709.225C315.724 708.919 319.859 704.597 319.859 699.57V678.462C331.558 676.463 342.684 672.962 353.042 668.202L363.381 685.594C365.851 689.749 371.307 690.919 375.559 688.22L386.808 681.082C391.015 678.412 392.453 672.91 390.028 668.778L379.992 651.68C388.975 644.57 396.974 636.345 403.777 627.249L420.517 636.512C424.626 638.786 429.863 637.155 432.221 632.88L438.474 621.547C440.818 617.299 439.427 612 435.361 609.699L419.174 600.541C423.557 590.257 426.625 579.309 428.173 567.905L446.245 567.68C450.903 567.622 454.668 563.687 454.668 558.89V546.134C454.668 541.336 450.903 537.454 446.245 537.462ZM303.775 642.475C251.702 644.408 208.126 603.994 208.126 552.146C208.126 500.299 251.702 459.328 303.775 460.595C354.078 461.819 393.618 502.26 393.618 550.961C393.619 599.662 354.078 640.609 303.775 642.475Z" fill="#97A6B7"/>
<path d="M245.508 411.409L232.974 410.977L228.652 422.214L245.508 411.409Z" fill="#97A6B7"/>
<path d="M369.791 416.596L384.244 416.74V427.401L369.791 416.596Z" fill="#97A6B7"/>
<path d="M424.871 468.021L439.278 468.604L435.676 476.671L424.871 468.021Z" fill="#97A6B7"/>
<path d="M447.49 537.613L462.041 538.766L457.287 545.825L447.49 537.613Z" fill="#97A6B7"/>
<path d="M423.287 637.45L437.406 639.467L439.134 627.941L423.287 637.45Z" fill="#97A6B7"/>
<path d="M369.262 689.458L381.94 691.763L382.948 682.398L369.262 689.458Z" fill="#97A6B7"/>
<path d="M305.872 711.935L294.491 709.918L304.288 695.367L305.872 711.935Z" fill="#97A6B7"/>
<path d="M244.211 699.687L230.957 696.95L241.186 684.561L244.211 699.687Z" fill="#97A6B7"/>
<path d="M169.729 462.268L183.559 462.7L178.084 472.784L169.729 462.268Z" fill="#97A6B7"/>
<path d="M142.212 570.748L154.89 572.621L153.881 562.248L142.212 570.748Z" fill="#97A6B7"/>
<path d="M169.44 646.671L181.83 648.688L182.839 640.477L169.44 646.671Z" fill="#97A6B7"/>
<path d="M460.463 538.604L442.719 538.635C441.497 526.916 438.679 515.666 434.486 505.098L449.488 496.399C453.588 494.021 454.99 488.659 452.627 484.409L446.323 473.074C443.945 468.798 438.664 467.228 434.521 469.579L419.705 477.987C412.81 468.325 404.58 459.614 395.259 452.122L403.78 437.486C406.226 433.286 404.775 427.759 400.533 425.128L389.191 418.092C384.904 415.432 379.403 416.69 376.912 420.914L368.371 435.4C357.397 430.29 345.538 426.602 333.03 424.625V407.445C333.03 402.377 328.86 398.079 323.7 397.843L309.891 397.213C304.666 396.975 300.416 400.935 300.416 406.058V423.426C287.522 424.5 275.093 427.398 263.408 431.883L254.19 416.181C251.481 411.567 245.465 409.778 240.744 412.199L228.116 418.675C223.34 421.124 221.701 426.886 224.462 431.532L234.013 447.596C223.56 454.985 214.215 463.831 206.3 473.861L189.025 464.088C184.127 461.318 177.842 462.754 174.995 467.312L167.401 479.474C164.536 484.062 166.237 490.017 171.191 492.758L189.066 502.648C184.11 514.061 180.762 526.296 179.305 539.088L157.863 539.125C152.092 539.135 147.398 543.508 147.398 548.893V563.213C147.398 568.598 152.092 572.905 157.863 572.833L179.875 572.559C181.733 585.052 185.403 596.945 190.619 607.987L171.191 619.012C166.237 621.823 164.536 627.801 167.401 632.349L174.995 644.403C177.842 648.921 184.127 650.269 189.025 647.428L208.675 636.034C216.527 645.319 225.658 653.477 235.792 660.268L224.462 679.483C221.7 684.168 223.34 689.907 228.116 692.288L240.744 698.585C245.465 700.939 251.481 699.065 254.19 694.413L265.426 675.115C276.521 679.027 288.262 681.51 300.416 682.368V703.881C300.416 709.004 304.666 712.904 309.891 712.591L323.7 711.766C328.86 711.457 333.03 707.1 333.03 702.032V680.752C344.826 678.736 356.044 675.208 366.488 670.408L376.912 687.942C379.403 692.131 384.904 693.31 389.191 690.59L400.533 683.393C404.775 680.702 406.226 675.154 403.78 670.989L393.661 653.752C402.719 646.584 410.783 638.292 417.643 629.122L434.521 638.461C438.664 640.753 443.945 639.108 446.323 634.799L452.627 623.374C454.991 619.091 453.589 613.749 449.488 611.429L433.167 602.196C437.587 591.829 440.68 580.791 442.241 569.295L460.463 569.068C465.16 569.01 468.956 565.042 468.956 560.206V547.345C468.956 542.51 465.16 538.596 460.463 538.604ZM316.812 644.473C264.308 646.421 220.37 605.678 220.37 553.408C220.37 501.138 264.308 459.834 316.812 461.111C367.532 462.344 407.4 503.115 407.4 552.213C407.4 601.311 367.532 642.591 316.812 644.473Z" fill="#D8DEE8"/>
<path d="M102.43 588.972C87.4842 589.863 75.2568 580.167 75.2568 567.353V105.515C75.2568 92.7014 87.4842 82.8063 102.43 83.4539L793.633 113.403C804.606 113.878 813.491 123.13 813.491 134.028V526.818C813.491 537.716 804.606 547.112 793.633 547.766L102.43 588.972Z" fill="#97A6B7"/>
<path d="M108.642 588.972C93.6961 589.863 81.4688 580.167 81.4688 567.353V105.515C81.4688 92.7014 93.6961 82.8063 108.642 83.4539L799.845 113.403C810.818 113.878 819.703 123.13 819.703 134.028V526.818C819.703 537.716 810.818 547.112 799.845 547.766L108.642 588.972Z" fill="white"/>
<path opacity="0.3" d="M799.845 122.649L108.643 94.2138C100.653 93.885 94.1562 99.1646 94.1562 106.007V465.195V566.658C94.1562 573.501 100.653 578.674 108.643 578.215L799.845 538.523C805.727 538.186 810.483 533.173 810.483 527.326V437.535V133.673C810.483 127.826 805.727 122.891 799.845 122.649Z" fill="#D8DEE8"/>
<path d="M108.642 538.979C105.532 539.133 102.998 537.092 102.998 534.431V106.347C102.998 103.686 105.532 101.62 108.642 101.744L799.845 129.118C802.139 129.209 804.004 131.14 804.004 133.422V500.466C804.004 502.748 802.139 504.697 799.845 504.81L108.642 538.979Z" fill="url(#paint0_linear_56_5878)"/>
<path opacity="0.6" d="M727.686 519.179C669.536 483.209 710.152 380.935 644.847 329.548C579.008 277.741 486.365 341.282 440.245 287.63C405.906 247.681 446.087 199.444 413.298 161.874C361.878 102.957 230.247 183.988 169.772 125.944C161.185 117.703 152.52 105.2 147.589 85.1415L108.642 83.4539C93.6961 82.8063 81.4688 92.7017 81.4688 105.515V567.353C81.4688 580.167 93.6961 589.863 108.642 588.972L799.845 547.766C810.818 547.112 819.703 537.716 819.703 526.818V519.834C773.808 535.408 745.75 530.353 727.686 519.179Z" fill="white"/>
<path d="M147.019 504.071L313.386 497.129V409.908L147.019 413.943V504.071Z" fill="#F4F7FA"/>
<g opacity="0.7">
<path d="M592.704 353.885L617.98 353.537V168.74L592.704 168.092V353.885Z" fill="#F4F7FA"/>
<path d="M547.09 354.515L572.856 354.159V260.871L547.09 260.719V354.515Z" fill="#F4F7FA"/>
<path d="M500.585 355.157L526.856 354.794V148.555L500.585 147.783V355.157Z" fill="#F4F7FA"/>
<path d="M453.16 355.811L479.951 355.441L479.95 178.07L453.16 177.455V355.811Z" fill="#F4F7FA"/>
<path d="M404.791 356.479L432.117 356.102V308.07L404.791 308.178V356.479Z" fill="#F4F7FA"/>
<path d="M355.447 357.159L383.325 356.774V242.749L355.447 242.488V357.159Z" fill="#F4F7FA"/>
<path d="M305.1 357.854L333.545 357.462V191.462L305.1 190.904V357.854Z" fill="#F4F7FA"/>
<path d="M253.717 358.561L282.749 358.16V235.865L253.717 235.559V358.561Z" fill="#F4F7FA"/>
<path d="M201.267 359.286L230.903 358.877V167.22L201.267 166.51V359.286Z" fill="#F4F7FA"/>
<path d="M147.716 360.025L177.976 359.607V144.355L147.716 143.502V360.025Z" fill="#F4F7FA"/>
</g>
<path d="M641.19 483.45L765.522 478.262V465.68L641.19 470.523V483.45Z" fill="#F4F7FA"/>
<path d="M641.19 316.575L765.522 315.836V303.254L641.19 303.648V316.575Z" fill="#F4F7FA"/>
<path d="M641.19 294.446L765.522 294.298V281.716L641.19 281.52V294.446Z" fill="#F4F7FA"/>
<path d="M641.19 465.579L661.453 464.811V444.984L641.19 445.665V465.579Z" fill="#F4F7FA"/>
<path d="M656.198 400.253C656.198 426.547 677.811 447.123 704.196 446.221C730.282 445.329 751.212 423.733 751.212 397.976C751.212 372.22 730.282 351.627 704.196 351.985C677.811 352.347 656.198 373.959 656.198 400.253Z" fill="#F4F7FA"/>
<path opacity="0.35" d="M658.984 398.773C659.581 379.837 672.058 363.669 689.212 357.418C693.91 355.707 698.952 354.732 704.196 354.657C728.81 354.305 748.572 373.73 748.572 398.039C748.572 422.349 728.81 442.721 704.196 443.548C679.315 444.385 658.947 424.975 658.947 400.187C658.947 399.713 658.969 399.244 658.984 398.773Z" fill="white"/>
<path d="M658.984 398.773C659.581 379.837 672.058 363.669 689.212 357.418C693.91 355.707 698.952 354.732 704.196 354.657C728.81 354.305 748.572 373.73 748.572 398.039C748.572 422.349 728.81 442.721 704.196 443.548C679.315 444.385 658.947 424.975 658.947 400.187C658.947 399.713 658.969 399.244 658.984 398.773Z" fill="#F4F7FA"/>
<path d="M658.983 398.772C659.581 379.836 672.058 363.669 689.212 357.418L704.196 399.102L658.983 398.772Z" fill="white"/>
<path d="M192.709 449.169C203.278 449.567 204.848 443.448 215.253 442.856C232.901 441.851 237.224 459.027 254.229 458.764C268.111 458.55 271.604 446.954 285.347 448.239C295.563 449.194 297.573 455.995 307.533 456.971C309.522 457.166 311.478 457.09 313.386 456.811V497.129L147.019 504.071V432.736C155.936 433.379 162.446 435.397 167.109 437.44C178.324 442.356 182.046 448.767 192.709 449.169Z" fill="#F4F7FA"/>
<path d="M641.19 263.983L765.522 264.647L765.522 155.562L641.19 151.91V263.983Z" fill="#F4F7FA"/>
<path d="M147.715 404.047L617.978 393.544V373.83L147.715 382.355V404.047Z" fill="#F4F7FA"/>
<path d="M333.544 496.288L617.978 484.42V401.17L333.544 407.985V496.288Z" fill="#F4F7FA"/>
<path d="M427.55 268.261L188.766 271.65C178.887 271.79 170.837 264.464 170.837 255.286V28.4028C170.837 19.2245 178.887 12.2687 188.766 12.8636L427.55 27.2432C436.072 27.7564 442.948 35.0318 442.948 43.4957V252.718C442.948 261.182 436.072 268.141 427.55 268.261Z" fill="url(#paint1_linear_56_5878)"/>
<g opacity="0.78">
<path d="M355.624 131.222L330.989 130.544V108.207L355.624 109.05V131.222Z" fill="white"/>
<path d="M385.783 132.051L361.598 131.386V109.254L385.783 110.081V132.051Z" fill="white"/>
<path d="M415.4 132.867L391.65 132.214V110.283L415.4 111.095V132.867Z" fill="white"/>
<path d="M229.225 158.211L202.666 157.716V134.52L229.225 135.193V158.211Z" fill="white"/>
<path d="M261.72 158.817L235.663 158.331V135.355L261.72 136.016V158.817Z" fill="white"/>
<path d="M293.608 159.411L268.038 158.934V136.176L293.608 136.824V159.411Z" fill="white"/>
<path d="M324.904 159.994L299.809 159.527V136.98L324.904 137.617V159.994Z" fill="white"/>
<path d="M355.624 160.568L330.989 160.109V137.771L355.624 138.396V160.568Z" fill="white"/>
<path d="M385.783 161.128L361.598 160.677V138.545L385.783 139.158V161.128Z" fill="white"/>
<path d="M415.4 161.68L391.65 161.238V139.307L415.4 139.908V161.68Z" fill="white"/>
<path d="M229.225 188.677L202.666 188.417V165.221L229.225 165.658V188.677Z" fill="white"/>
<path d="M261.72 188.994L235.663 188.739V165.764L261.72 166.193V188.994Z" fill="white"/>
<path d="M293.608 189.308L268.039 189.057V166.299L293.608 166.72V189.308Z" fill="white"/>
<path d="M324.904 189.611L299.809 189.366V166.82L324.904 167.234V189.611Z" fill="white"/>
<path d="M355.624 189.912L330.989 189.671V167.334L355.624 167.74V189.912Z" fill="white"/>
<path d="M385.783 190.208L361.598 189.972V167.84L385.783 168.238V190.208Z" fill="white"/>
<path d="M415.4 190.499L391.65 190.267V168.336L415.4 168.727V190.499Z" fill="white"/>
<path d="M229.225 219.143L202.666 219.118V195.922L229.225 196.124V219.143Z" fill="white"/>
<path d="M261.72 219.175L235.663 219.151V196.176L261.72 196.374V219.175Z" fill="white"/>
<path d="M293.608 219.2L268.039 219.177V196.418L293.608 196.613V219.2Z" fill="white"/>
<path d="M324.904 219.231L299.809 219.208V196.662L324.904 196.853V219.231Z" fill="white"/>
<path d="M355.624 219.26L330.989 219.238V196.9L355.624 197.088V219.26Z" fill="white"/>
<path d="M385.783 219.287L361.598 219.265V197.133L385.783 197.317V219.287Z" fill="white"/>
<path d="M415.4 219.314L391.65 219.293V197.361L415.4 197.542V219.314Z" fill="white"/>
<path d="M229.225 249.611L202.666 249.822V226.625L229.225 226.592V249.611Z" fill="white"/>
<path d="M261.72 249.352L235.663 249.559V226.583L261.72 226.551V249.352Z" fill="white"/>
<path d="M293.608 249.097L268.039 249.301V226.542L293.608 226.51V249.097Z" fill="white"/>
<path d="M324.904 248.848L299.809 249.048V226.502L324.904 226.471V248.848Z" fill="white"/>
<path d="M355.624 248.604L330.989 248.799V226.462L355.624 226.432V248.604Z" fill="white"/>
<path d="M385.784 248.365L361.599 248.557V226.425L385.784 226.395V248.365Z" fill="white"/>
</g>
<path d="M415.399 72.8177L248.741 65.1549V37.8203L415.399 46.8157V72.8177Z" fill="white"/>
<path opacity="0.78" d="M415.399 87.6801L248.741 80.7792V70.3633L415.399 77.7719V87.6801Z" fill="white"/>
<path d="M355.623 189.916L330.988 189.675V167.338L355.623 167.744V189.916Z" fill="white"/>
<g opacity="0.79">
<path d="M142.129 594.312C130.947 594.986 121.813 586.578 121.813 575.567V365.795C121.813 354.784 130.947 345.723 142.129 345.598L512.582 341.458C522.148 341.351 529.902 349.504 529.902 359.632V552.578C529.902 562.706 522.148 571.413 512.582 571.989L142.129 594.312Z" fill="url(#paint2_linear_56_5878)"/>
<path d="M512.582 347.432L142.129 352.044C134.8 352.135 128.842 358.243 128.842 365.687V575.169C128.842 582.612 134.799 588.295 142.129 587.862L512.582 566.011C518.861 565.64 523.94 559.776 523.94 552.912V359.72C523.94 352.856 518.861 347.354 512.582 347.432Z" fill="url(#paint3_linear_56_5878)"/>
<path d="M202.977 552.297L175.223 553.757V509.167L202.977 507.953V552.297Z" fill="white"/>
<path d="M248.561 549.898L221.311 551.332V492.603L248.561 491.49V549.898Z" fill="white"/>
<path d="M293.322 547.545L266.562 548.953V471.594L293.322 470.605V547.545Z" fill="white"/>
<path d="M337.284 545.23L311.002 546.612V444.707L337.284 443.871V545.23Z" fill="white"/>
<path d="M175.22 471.164C174.595 471.186 173.96 471.095 173.348 470.878C170.89 470.003 169.736 467.412 170.774 465.091C171.96 462.438 174.827 462.004 176.367 461.771C177.531 461.594 179.112 461.414 181.112 461.186C246.549 453.722 293.026 427.793 320.294 384.341C321.599 382.262 324.395 381.557 326.537 382.762C328.678 383.969 329.358 386.63 328.056 388.707C309.633 418.13 282.683 440.211 247.692 454.319C219.349 465.746 193.189 468.777 181.933 470.081C180.067 470.298 178.144 470.521 177.252 470.672C176.62 470.968 175.927 471.138 175.22 471.164ZM179.643 468.306C179.643 468.307 179.642 468.308 179.642 468.309C179.642 468.308 179.643 468.307 179.643 468.306ZM179.648 468.296C179.647 468.298 179.647 468.299 179.646 468.301C179.647 468.299 179.647 468.297 179.648 468.296ZM179.653 468.285C179.652 468.287 179.651 468.289 179.651 468.291C179.651 468.289 179.652 468.287 179.653 468.285ZM179.658 468.275C179.657 468.277 179.656 468.279 179.655 468.282C179.656 468.279 179.657 468.277 179.658 468.275ZM179.663 468.262C179.662 468.265 179.661 468.268 179.659 468.271C179.661 468.268 179.662 468.265 179.663 468.262Z" fill="white"/>
<path d="M328.549 409.371C326.178 409.43 324.181 407.712 324.024 405.414L322.732 386.397L303.744 398.946C301.641 400.334 298.792 399.862 297.381 397.886C295.97 395.909 296.535 393.178 298.643 391.79L330.767 370.629L333.075 404.635C333.237 407.024 331.346 409.138 328.848 409.355C328.748 409.363 328.648 409.369 328.549 409.371Z" fill="white"/>
<path opacity="0.68" d="M379.067 391.945C379.067 395.522 376.072 398.489 372.373 398.573C368.668 398.657 365.66 395.818 365.66 392.231C365.66 388.645 368.668 385.677 372.373 385.603C376.072 385.529 379.067 388.368 379.067 391.945Z" fill="white"/>
<path opacity="0.68" d="M503.27 403.359L389.152 406.133V377.324L503.27 375.232V403.359Z" fill="white"/>
<path opacity="0.68" d="M379.067 431.283C379.067 434.859 376.072 437.851 372.373 437.965C368.668 438.079 365.66 435.264 365.66 431.678C365.66 428.091 368.668 425.099 372.373 424.995C376.072 424.891 379.067 427.706 379.067 431.283Z" fill="white"/>
<path opacity="0.68" d="M503.27 441.687L389.152 445.39V416.582L503.27 413.561V441.687Z" fill="white"/>
<path opacity="0.68" d="M379.067 509.955C379.067 513.532 376.072 516.573 372.373 516.747C368.668 516.921 365.66 514.156 365.66 510.569C365.66 506.982 368.668 503.941 372.373 503.776C376.072 503.612 379.067 506.379 379.067 509.955Z" fill="white"/>
<path opacity="0.68" d="M503.269 511.308L389.151 516.699V502.294L503.269 497.244V511.308Z" fill="white"/>
<path opacity="0.68" d="M379.067 535.816C379.067 539.393 376.072 542.449 372.373 542.643C368.668 542.837 365.66 540.088 365.66 536.501C365.66 532.915 368.668 529.857 372.373 529.673C376.072 529.489 379.067 532.239 379.067 535.816Z" fill="white"/>
<path opacity="0.68" d="M503.27 536.501L389.152 542.503V528.099L503.27 522.438V536.501Z" fill="white"/>
</g>
<g opacity="0.78">
<path d="M791.298 223.366H515.438C511.746 223.366 508.747 220.617 508.747 217.225V67.248C508.747 63.8567 511.746 61.2496 515.438 61.4243L791.298 74.4845C794.412 74.632 796.932 77.2691 796.932 80.3753V217.742C796.932 220.848 794.412 223.366 791.298 223.366Z" fill="url(#paint4_linear_56_5878)"/>
<path d="M791.298 223.367H515.438C511.746 223.367 508.747 220.618 508.747 217.227V198.758L796.932 200.827V217.743C796.932 220.849 794.412 223.367 791.298 223.367Z" fill="url(#paint5_linear_56_5878)"/>
<path d="M686.465 136.486C686.465 150.93 674.298 162.412 659.164 162.129C643.888 161.844 631.399 149.703 631.399 135.014C631.399 120.325 643.888 108.852 659.164 109.383C674.298 109.909 686.465 122.042 686.465 136.486Z" fill="url(#paint6_linear_56_5878)"/>
<path opacity="0.68" d="M648.337 150.76V120.172L680.064 136.314L648.337 150.76Z" fill="white"/>
<path opacity="0.68" d="M791.434 214.352L515.277 213.56V209.602L791.434 210.713V214.352Z" fill="white"/>
<path d="M589.149 213.772L515.277 213.56V209.602L589.149 209.899V213.772Z" fill="url(#paint7_linear_56_5878)"/>
<path d="M591.48 211.842C591.48 215.049 588.709 217.643 585.283 217.637C581.851 217.631 579.062 215.018 579.062 211.799C579.062 208.581 581.85 205.986 585.283 206.004C588.709 206.022 591.48 208.635 591.48 211.842Z" fill="white"/>
</g>
<path d="M625.311 718.025C624.694 718.025 624.174 717.555 624.117 716.936L608.751 550.885C608.69 550.226 609.175 549.641 609.835 549.58C610.497 549.527 611.08 550.005 611.14 550.665L624.111 690.842V547.1C624.111 546.437 624.648 545.9 625.311 545.9C625.973 545.9 626.51 546.437 626.51 547.1V716.825C626.51 717.466 626.007 717.994 625.366 718.024C625.348 718.025 625.329 718.025 625.311 718.025Z" fill="#B7C0CE"/>
<path opacity="0.81" d="M796.644 565.263L628.083 546.795L494.132 561.514L663.736 581.824L796.644 565.263Z" fill="#F4F7FA"/>
<path d="M663.736 581.824L796.644 565.263V573.262L663.736 589.823L494.132 569.513V561.514L663.736 581.824Z" fill="#B7C0CE"/>
<path d="M495.984 742.744C495.969 742.744 495.953 742.743 495.937 742.742C495.293 742.718 494.784 742.188 494.784 741.544V569.073C494.784 568.41 495.321 567.873 495.984 567.873C496.646 567.873 497.183 568.41 497.183 569.073V710.941L508.33 568.979C508.383 568.317 508.966 567.827 509.62 567.876C510.28 567.928 510.774 568.505 510.722 569.166L497.18 741.637C497.131 742.264 496.608 742.744 495.984 742.744Z" fill="#B7C0CE"/>
<path d="M795.047 742.745C794.426 742.745 793.905 742.269 793.852 741.645L779.473 569.173C779.418 568.514 779.909 567.934 780.569 567.879C781.227 567.801 781.809 568.313 781.864 568.974L793.848 712.718V573.263C793.848 572.6 794.385 572.063 795.048 572.063C795.71 572.063 796.248 572.6 796.248 573.263V741.545C796.248 742.188 795.74 742.716 795.098 742.743C795.081 742.745 795.064 742.745 795.047 742.745Z" fill="#B7C0CE"/>
<path d="M749.074 560.914L618.054 559.939V562.824C618.054 563.607 618.625 564.273 619.399 564.391L656.448 570.072C656.887 570.14 657.334 570.157 657.777 570.125L747.65 563.649C748.453 563.591 749.074 562.923 749.074 562.119V560.914Z" fill="#26264F"/>
<path d="M701.527 556.146L619.408 561.424C617.939 561.518 616.744 560.515 616.744 559.182V505.797C616.744 504.465 617.939 503.385 619.408 503.385H701.527C702.738 503.385 703.716 504.361 703.716 505.566V553.824C703.716 555.029 702.738 556.068 701.527 556.146Z" fill="#26264F"/>
<path d="M702.837 556.146L620.718 561.424C619.248 561.518 618.054 560.515 618.054 559.182V505.797C618.054 504.465 619.248 503.385 620.718 503.385H702.837C704.047 503.385 705.026 504.361 705.026 505.566V553.824C705.026 555.029 704.047 556.068 702.837 556.146Z" fill="#26264F"/>
<path d="M700.279 552.746L623.794 557.33C622.598 557.401 621.626 556.578 621.626 555.49V508.752C621.626 507.664 622.598 506.779 623.794 506.774L700.279 506.486C701.277 506.483 702.085 507.283 702.085 508.273V550.844C702.085 551.835 701.277 552.686 700.279 552.746Z" fill="url(#paint8_linear_56_5878)"/>
<path d="M664.677 504.845C664.677 505.341 664.254 505.744 663.733 505.746C663.21 505.747 662.786 505.345 662.786 504.848C662.786 504.351 663.21 503.948 663.733 503.947C664.254 503.947 664.677 504.349 664.677 504.845Z" fill="white"/>
<path opacity="0.48" d="M683.384 541.531C677.021 538.431 672.018 542.359 667.189 538.484C664.262 536.134 665.699 534.383 662.097 530.872C658.108 526.983 655.51 528.29 651.501 524.79C646.431 520.365 648.967 516.922 644.6 513.745C639.302 509.891 633.589 513.458 628.546 509.762C626.371 508.168 625.178 505.85 624.555 503.385H619.62C618.756 503.385 618.054 504.019 618.054 504.802V560.178C618.054 560.96 618.756 561.55 619.62 561.494L703.741 556.088C704.154 556.062 704.521 555.843 704.755 555.527C698.597 555.324 694.814 553.455 692.396 551.523C687.665 547.743 688.486 544.016 683.384 541.531Z" fill="white"/>
<path d="M706.109 556L618.053 561.554L656.447 567.441C656.886 567.509 657.333 567.526 657.776 567.494L749.073 560.915L707.509 556.037C707.045 555.983 706.576 555.97 706.109 556Z" fill="#26264F"/>
<path opacity="0.47" d="M630.902 561.602L704.211 556.908L726.9 559.549L654.222 564.567L630.902 561.602Z" fill="#D8DEE8"/>
<path d="M722.788 729.553C722.788 729.553 703.528 730.891 703.245 732.149C702.962 733.407 716.318 738.268 720.984 738.449C725.651 738.63 729.49 737.251 729.067 735.275C728.645 733.298 727.012 728.326 727.012 728.326L722.788 729.553Z" fill="url(#paint9_linear_56_5878)"/>
<path d="M721.877 720.994L721.535 730.084C721.535 730.084 724.465 731.738 726.791 730.787L729.377 721.202L721.877 720.994Z" fill="url(#paint10_linear_56_5878)"/>
<path d="M668.923 725.887C668.923 725.887 649.663 727.225 649.379 728.483C649.096 729.741 662.452 734.602 667.119 734.783C671.786 734.964 675.625 733.585 675.202 731.609C674.78 729.632 673.146 724.66 673.146 724.66L668.923 725.887Z" fill="url(#paint11_linear_56_5878)"/>
<path d="M668.013 717.33L667.671 726.419C667.671 726.419 670.601 728.073 672.926 727.123L675.513 717.538L668.013 717.33Z" fill="url(#paint12_linear_56_5878)"/>
<path d="M719.831 722.28C723.43 722.68 727.029 723.08 730.628 723.48C735.488 718.092 742.745 708.698 746.623 695.489C754.099 670.023 743.271 651.672 750.221 647.104C760.059 640.64 781.379 677.857 815.601 676.901C829.643 676.509 847.97 669.632 855.014 654.656C856.078 652.395 861.301 640.559 856.214 629.464C850.962 618.008 824.908 613.024 773.014 603.519C750.739 599.44 739.491 597.405 734.971 599.563C702.942 614.853 716.298 701.31 719.831 722.28Z" fill="url(#paint13_linear_56_5878)"/>
<path d="M664.882 722.432C668.605 723.08 672.327 723.728 676.05 724.376C680.571 717.716 687.414 707.281 695.067 694.041C711.018 666.441 710.727 660.836 718.099 657.282C733.701 649.764 745.49 670.076 784.077 675.677C796.7 677.509 824.722 681.578 836.06 666.48C840.656 660.359 843.296 650.042 839.659 641.288C833.137 625.594 811.656 627.479 740.891 613.697C713.295 608.322 709.533 607.364 702.848 609.741C665.515 623.017 664.788 704.302 664.882 722.432Z" fill="url(#paint14_linear_56_5878)"/>
<path d="M742.192 506.298C745.866 497.314 753.752 492.148 757.841 489.469C759.887 488.127 761.778 487.122 763.698 486.338C778.506 480.292 793.291 480.708 795.928 480.906C802.324 481.385 818.119 482.567 829.823 492.708C835.487 497.616 840.015 504.468 846.617 543.091C855.824 596.956 848.351 591.435 855.614 613.268C859.457 624.821 865.444 638.077 859.111 646.542C857.066 649.276 854.144 650.061 848.187 652.741C825.935 662.754 805.985 661.028 793.861 659.827C780.521 658.506 773.779 657.75 770.241 653.036C764.591 645.507 770.408 635.938 771.422 619.378C772.151 607.489 769.448 598.066 764.041 579.224C751.472 535.419 735.154 523.508 742.192 506.298Z" fill="url(#paint15_linear_56_5878)"/>
<path d="M679.494 559.937L665.276 557.202C664.255 557.006 663.206 556.996 662.181 557.172L649.882 559.287C649.882 559.287 657.879 562.504 664.677 561.495C671.475 560.486 678.901 564.311 678.901 564.311L679.494 559.937Z" fill="url(#paint16_linear_56_5878)"/>
<path d="M773.646 470.95C771.255 467.337 774.834 460.386 776.25 457.637C776.299 457.542 776.361 457.418 776.494 457.172C778.669 453.159 779.226 452.611 780.264 451.916L781.706 451.026C781.706 451.026 781.79 450.993 781.878 450.962C782.804 450.633 785.958 450.537 786.598 450.674C788.64 451.109 790.813 459.427 790.193 471.186C790.278 471.635 790.359 472.087 790.438 472.543C790.76 474.4 791.015 476.22 791.213 478C791.402 479.702 793.816 479.664 795.525 479.555C802.463 479.112 805.859 479.702 806.154 480.735C806.707 482.672 798.477 489.003 788.315 490.426C774.677 490.528 763.583 489.075 764.775 486.928C765.305 485.974 775.872 483.213 778.844 480.477C781.565 477.971 781.343 475.384 781.567 473.532C780.16 473.606 775.469 473.705 773.646 470.95Z" fill="url(#paint17_linear_56_5878)"/>
<path d="M777.475 447.684C776.354 450.157 779.074 455.123 780.078 455.844C780.191 455.924 780.827 456.426 781.398 457.284C781.476 457.401 781.544 457.539 781.605 457.716C782.404 460.012 778.753 462.713 779.458 463.741C779.969 464.487 782.45 463.49 782.745 464.133C783.023 464.74 780.961 465.994 781.277 466.72C781.515 467.268 782.784 466.767 783.584 467.607C784.203 468.256 784.275 469.175 784.289 469.634C784.388 472.898 776.986 484.686 775.445 490.004C773.809 495.645 776.735 501.014 787.36 515.85C802.474 536.953 810.032 547.504 814.233 550.521C834.768 565.262 858.914 563.456 868.815 561.918C880.711 560.07 905.286 556.252 913.2 537.326C922.298 515.57 904.386 485.799 886.009 480.744C877.606 478.433 873.131 481.943 862.217 478.145C850.164 473.95 851.624 466.533 840.464 462.153C825.58 456.311 815.976 466.755 805.836 459.15C800.318 455.012 801.228 450.468 794.44 447.154C787.743 443.885 778.945 444.443 777.475 447.684Z" fill="#26264F"/>
<path d="M780.767 462.886C781.66 461.659 783.229 462.812 783.238 464.399C783.247 465.986 781.709 467.637 780.217 467.323C778.724 467.01 779.565 464.537 780.767 462.886Z" fill="url(#paint18_linear_56_5878)"/>
<path opacity="0.3" d="M805.376 644.182C801.451 636.367 811.068 625.979 804.785 614.066C799.449 603.948 789.756 606.215 785.299 596.942C779.915 585.741 791.623 577.37 791.204 560.331C790.702 539.96 773.175 519.57 762.86 521.358C756.186 522.515 755.329 532.471 750.633 543.371C754.788 552.483 759.642 563.897 764.041 579.227C769.447 598.069 772.151 607.491 771.422 619.38C770.407 635.941 764.59 645.51 770.241 653.039C773.778 657.752 780.52 658.509 793.861 659.83C805.984 661.03 825.935 662.756 848.187 652.744C851.003 651.476 853.112 650.527 854.832 649.591C820.068 654.812 808.489 650.38 805.376 644.182Z" fill="url(#paint19_linear_56_5878)"/>
<path d="M675.873 564.087C676.276 562.272 676.68 560.459 677.083 558.644C704.4 563.54 716.345 558.044 722.116 551.621C727.412 545.726 725.154 542.68 733.63 520.177C741.704 498.743 750.865 493.235 755.479 491.242C758.056 490.129 759.836 489.391 761.974 489.913C771.816 492.319 775.07 517.965 772.308 537.154C770.753 547.964 767.702 569.164 750.312 579.227C749.992 579.412 749.486 579.705 748.818 580.062C746.629 581.234 737.927 585.418 720.787 582.327C700.578 578.681 680.864 567.1 675.873 564.087Z" fill="url(#paint20_linear_56_5878)"/>
<path d="M810.901 800.234C843.863 800.234 870.585 789.329 870.585 775.876C870.585 762.423 843.863 751.518 810.901 751.518C777.938 751.518 751.217 762.423 751.217 775.876C751.217 789.329 777.938 800.234 810.901 800.234Z" fill="#B7C0CE"/>
<path d="M870.584 773.02C870.584 785.72 843.863 796.014 810.901 796.014C777.938 796.014 751.217 785.72 751.217 773.02C751.217 760.322 777.938 739.543 810.901 739.543C843.863 739.543 870.584 760.322 870.584 773.02Z" fill="white"/>
<path opacity="0.3" d="M870.584 773.02C870.584 760.321 843.863 739.543 810.9 739.543C795.681 739.543 781.799 743.977 771.257 749.996C770.519 751.542 770.175 753.079 770.315 754.539C770.999 761.683 782.652 766.076 789.341 767.525C806.186 771.173 814.411 761.1 828.3 761.485C836.886 761.722 848.785 766.036 862.898 784.304C867.784 780.97 870.584 777.122 870.584 773.02Z" fill="url(#paint21_linear_56_5878)"/>
<path d="M814.169 751.078C811.785 751.671 809.56 751.648 807.467 751.116C805.568 750.634 804.265 748.877 804.265 746.918L804.265 679.619H817.536V746.839C817.536 748.858 816.129 750.59 814.169 751.078Z" fill="white"/>
<path opacity="0.65" d="M814.169 751.078C811.785 751.671 809.56 751.648 807.467 751.116C805.568 750.634 804.265 748.877 804.265 746.918L804.265 679.619H817.536V746.839C817.536 748.858 816.129 750.59 814.169 751.078Z" fill="url(#paint22_linear_56_5878)"/>
<path d="M740.775 651.294L761.05 638.478C761.893 633.69 771.45 583.604 810.249 567.875C826.027 561.479 843.007 562.238 852.325 562.655C870.927 563.486 884.195 564.078 890.577 572.952C898.772 584.345 885.027 594.678 887.873 627.269C889.034 640.56 891.985 646.463 888.309 655.267C883.905 665.814 873.693 671.66 865.753 674.951C856.261 680.463 839.735 688.317 817.907 690.23C781.14 693.452 753.692 677.68 744.253 671.646C740.055 670.322 736.902 666.832 736.009 662.523C735.105 658.152 737.003 653.679 740.775 651.294Z" fill="url(#paint23_linear_56_5878)"/>
<path opacity="0.26" d="M750.097 660.421C750.846 655.914 763.407 659.65 775.289 650.824C793.05 637.631 783.831 615.282 799.281 593.843C813.459 574.168 842.003 564.154 850.864 571.65C862.659 581.629 833.792 618.947 850.864 643.027C859.157 654.724 871.792 654.161 871.857 661.021C871.96 671.862 840.514 684.36 810.677 683.814C778.6 683.225 748.908 667.574 750.097 660.421Z" fill="white"/>
<path d="M664.883 775.941C664.867 775.941 664.851 775.941 664.835 775.939C664.192 775.915 663.683 775.385 663.683 774.741V587.879C663.683 587.216 664.22 586.68 664.882 586.68C665.545 586.68 666.082 587.216 666.082 587.879V744.013L678.298 587.786C678.35 587.126 678.92 586.635 679.588 586.683C680.248 586.735 680.742 587.312 680.69 587.973L666.078 774.834C666.029 775.462 665.506 775.941 664.883 775.941Z" fill="#B7C0CE"/>
<path d="M480.178 401.805C537.325 401.805 583.652 355.477 583.652 298.33C583.652 241.183 537.325 194.855 480.178 194.855C423.03 194.855 376.703 241.183 376.703 298.33C376.703 355.477 423.03 401.805 480.178 401.805Z" fill="url(#paint24_linear_56_5878)"/>
<path d="M487.983 394C545.131 394 591.458 347.673 591.458 290.525C591.458 233.378 545.131 187.051 487.983 187.051C430.836 187.051 384.509 233.378 384.509 290.525C384.509 347.673 430.836 394 487.983 394Z" fill="url(#paint25_linear_56_5878)"/>
<path d="M584.321 290.526C584.321 343.735 541.193 386.864 487.983 386.864C469.012 386.864 451.316 381.378 436.405 371.897C409.5 354.82 391.645 324.764 391.645 290.526C391.645 237.316 434.773 194.188 487.983 194.188C488.874 194.188 489.755 194.197 490.637 194.225C542.618 195.632 584.321 238.207 584.321 290.526Z" fill="url(#paint26_linear_56_5878)"/>
<path d="M487.984 246.256L401.464 272.628L487.984 299L574.503 272.628L487.984 246.256Z" fill="white"/>
<path d="M487.984 308.246L433.531 291.648V329.565C433.531 335.788 437.883 341.171 443.971 342.462C473.214 348.662 501.333 348.854 528.256 342.664C534.22 341.293 538.425 335.949 538.425 329.83V292.871L487.984 308.246Z" fill="white"/>
<path d="M421.504 323.973C416.773 326.074 412.636 326.118 409.093 324.105C408.057 323.517 407.542 322.306 407.777 321.138L415.478 282.85L423.12 320.848C423.379 322.139 422.707 323.438 421.504 323.973Z" fill="white"/>
<path d="M487.983 268.723L414.356 276.546V289.318H416.538L416.762 278.125L487.983 268.723Z" fill="white"/>
<path opacity="0.6" d="M584.322 290.527C584.322 343.737 541.194 386.866 487.983 386.866C469.012 386.866 451.316 381.38 436.405 371.899C445.464 347.254 471.656 320.799 498.768 304.219C548.958 273.535 510.818 218.093 490.637 194.227C542.618 195.633 584.322 238.208 584.322 290.527Z" fill="white"/>
</g>
<defs>
<linearGradient id="paint0_linear_56_5878" x1="102.998" y1="320.363" x2="804.004" y2="320.363" gradientUnits="userSpaceOnUse">
<stop offset="0.0036" stop-color="#E38DDD"/>
<stop offset="1" stop-color="#9571F6"/>
</linearGradient>
<linearGradient id="paint1_linear_56_5878" x1="393.117" y1="6.01653" x2="184.049" y2="332.367" gradientUnits="userSpaceOnUse">
<stop stop-color="#F485FF"/>
<stop offset="1" stop-color="#956FFB"/>
</linearGradient>
<linearGradient id="paint2_linear_56_5878" x1="292.439" y1="360.2" x2="451.952" y2="872.793" gradientUnits="userSpaceOnUse">
<stop stop-color="#768C44"/>
<stop offset="0.9964" stop-color="#3F4F26"/>
</linearGradient>
<linearGradient id="paint3_linear_56_5878" x1="294.225" y1="364.075" x2="447.723" y2="857.335" gradientUnits="userSpaceOnUse">
<stop stop-color="#5444FF"/>
<stop offset="0.9964" stop-color="#569BF3"/>
</linearGradient>
<linearGradient id="paint4_linear_56_5878" x1="680.871" y1="98.6347" x2="544.55" y2="311.976" gradientUnits="userSpaceOnUse">
<stop stop-color="#DA44FF"/>
<stop offset="0.9964" stop-color="#8156F3"/>
</linearGradient>
<linearGradient id="paint5_linear_56_5878" x1="671.355" y1="180.096" x2="586.52" y2="312.861" gradientUnits="userSpaceOnUse">
<stop stop-color="#448C45"/>
<stop offset="0.9964" stop-color="#264F2B"/>
</linearGradient>
<linearGradient id="paint6_linear_56_5878" x1="671.927" y1="110.731" x2="598.989" y2="251.103" gradientUnits="userSpaceOnUse">
<stop stop-color="#448C45"/>
<stop offset="0.9964" stop-color="#264F2B"/>
</linearGradient>
<linearGradient id="paint7_linear_56_5878" x1="552.45" y1="188.488" x2="551.769" y2="255.239" gradientUnits="userSpaceOnUse">
<stop stop-color="#DA44FF"/>
<stop offset="0.9964" stop-color="#8156F3"/>
</linearGradient>
<linearGradient id="paint8_linear_56_5878" x1="621.626" y1="531.91" x2="702.085" y2="531.91" gradientUnits="userSpaceOnUse">
<stop stop-color="#AA80F9"/>
<stop offset="0.9964" stop-color="#6165D7"/>
</linearGradient>
<linearGradient id="paint9_linear_56_5878" x1="713.688" y1="702.273" x2="717.995" y2="757.083" gradientUnits="userSpaceOnUse">
<stop offset="0.0036" stop-color="#26264F"/>
<stop offset="1" stop-color="#444B8C"/>
</linearGradient>
<linearGradient id="paint10_linear_56_5878" x1="723.802" y1="732.551" x2="734.121" y2="667.803" gradientUnits="userSpaceOnUse">
<stop stop-color="#FFC444"/>
<stop offset="0.9964" stop-color="#F36F56"/>
</linearGradient>
<linearGradient id="paint11_linear_56_5878" x1="659.823" y1="698.607" x2="664.13" y2="753.416" gradientUnits="userSpaceOnUse">
<stop offset="0.0036" stop-color="#26264F"/>
<stop offset="1" stop-color="#444B8C"/>
</linearGradient>
<linearGradient id="paint12_linear_56_5878" x1="669.938" y1="728.886" x2="680.257" y2="664.139" gradientUnits="userSpaceOnUse">
<stop stop-color="#FFC444"/>
<stop offset="0.9964" stop-color="#F36F56"/>
</linearGradient>
<linearGradient id="paint13_linear_56_5878" x1="820.871" y1="585.886" x2="796.279" y2="622.474" gradientUnits="userSpaceOnUse">
<stop stop-color="#893976"/>
<stop offset="1" stop-color="#311944"/>
</linearGradient>
<linearGradient id="paint14_linear_56_5878" x1="664.877" y1="666.446" x2="841.364" y2="666.446" gradientUnits="userSpaceOnUse">
<stop stop-color="#893976"/>
<stop offset="1" stop-color="#311944"/>
</linearGradient>
<linearGradient id="paint15_linear_56_5878" x1="759.25" y1="534" x2="837.805" y2="609.012" gradientUnits="userSpaceOnUse">
<stop stop-color="#DF85FF"/>
<stop offset="1" stop-color="#7E6FFB"/>
</linearGradient>
<linearGradient id="paint16_linear_56_5878" x1="665.315" y1="557.583" x2="663.524" y2="565.758" gradientUnits="userSpaceOnUse">
<stop stop-color="#FFC444"/>
<stop offset="0.9964" stop-color="#F36F56"/>
</linearGradient>
<linearGradient id="paint17_linear_56_5878" x1="769.408" y1="447.305" x2="800.871" y2="519.486" gradientUnits="userSpaceOnUse">
<stop stop-color="#FFC444"/>
<stop offset="0.9964" stop-color="#F36F56"/>
</linearGradient>
<linearGradient id="paint18_linear_56_5878" x1="772.473" y1="444.911" x2="807.603" y2="525.501" gradientUnits="userSpaceOnUse">
<stop stop-color="#FFC444"/>
<stop offset="0.9964" stop-color="#F36F56"/>
</linearGradient>
<linearGradient id="paint19_linear_56_5878" x1="737.755" y1="556.502" x2="816.291" y2="631.495" gradientUnits="userSpaceOnUse">
<stop stop-color="#DF85FF"/>
<stop offset="1" stop-color="#7E6FFB"/>
</linearGradient>
<linearGradient id="paint20_linear_56_5878" x1="741.286" y1="547.705" x2="830.378" y2="632.778" gradientUnits="userSpaceOnUse">
<stop stop-color="#DF85FF"/>
<stop offset="1" stop-color="#7E6FFB"/>
</linearGradient>
<linearGradient id="paint21_linear_56_5878" x1="770.284" y1="761.923" x2="870.584" y2="761.923" gradientUnits="userSpaceOnUse">
<stop stop-color="#AA80F9"/>
<stop offset="0.9964" stop-color="#6165D7"/>
</linearGradient>
<linearGradient id="paint22_linear_56_5878" x1="804.265" y1="715.569" x2="817.536" y2="715.569" gradientUnits="userSpaceOnUse">
<stop stop-color="#AA80F9"/>
<stop offset="0.9964" stop-color="#6165D7"/>
</linearGradient>
<linearGradient id="paint23_linear_56_5878" x1="876.784" y1="701.455" x2="852.451" y2="669.749" gradientUnits="userSpaceOnUse">
<stop stop-color="#444B8C"/>
<stop offset="0.9964" stop-color="#26264F"/>
</linearGradient>
<linearGradient id="paint24_linear_56_5878" x1="376.703" y1="298.33" x2="583.652" y2="298.33" gradientUnits="userSpaceOnUse">
<stop stop-color="#444B8C"/>
<stop offset="0.9964" stop-color="#26264F"/>
</linearGradient>
<linearGradient id="paint25_linear_56_5878" x1="503.489" y1="237.394" x2="460.977" y2="383.063" gradientUnits="userSpaceOnUse">
<stop stop-color="#AA80F9"/>
<stop offset="0.9964" stop-color="#6165D7"/>
</linearGradient>
<linearGradient id="paint26_linear_56_5878" x1="391.645" y1="290.526" x2="584.321" y2="290.526" gradientUnits="userSpaceOnUse">
<stop stop-color="#AA80F9"/>
<stop offset="0.9964" stop-color="#6165D7"/>
</linearGradient>
<clipPath id="clip0_56_5878">
<rect width="960" height="800" fill="white"/>
</clipPath>
</defs>
</svg>
